<?xml version="1.0" encoding="UTF-8"?>
<svg version="1.1" xmlns="http://www.w3.org/2000/svg" width="1080" height="1080" viewBox="0 0 1080 1080">
<path d="M0 0 C356.4 0 712.8 0 1080 0 C1080 356.4 1080 712.8 1080 1080 C723.6 1080 367.2 1080 0 1080 C0 723.6 0 367.2 0 0 Z " fill="#080808" transform="translate(0,0)"/>
<path d="M0 0 C7.25485068 -0.12817244 14.50940301 -0.2149186 21.76513672 -0.2746582 C24.22651072 -0.29959695 26.68781226 -0.3335605 29.14892578 -0.37719727 C51.66449842 -0.76602776 70.65604841 1.45748267 87.71875 17.65625 C99.48000891 29.73973518 106.49883372 44.50596085 106.38476562 61.4440918 C106.3901384 62.43582901 106.39551117 63.42756622 106.40104675 64.44935608 C106.41076953 66.58595022 106.4137857 68.72258359 106.41069031 70.85919762 C106.4061769 74.25420529 106.42031379 77.64870134 106.43908691 81.0436554 C106.47572985 88.25826212 106.4895462 95.47281399 106.5 102.6875 C106.5121322 111.0382205 106.53395182 119.38868963 106.58000183 127.73929787 C106.59343889 131.05983865 106.58942501 134.38005064 106.58459473 137.7006073 C106.61408795 148.85129417 107.16366597 159.18103395 110 170 C110.18664215 170.74721817 110.3732843 171.49443634 110.56558228 172.26429749 C114.62072497 187.40200122 122.36619955 201.53873495 133 213 C133.81984375 213.91136719 134.6396875 214.82273437 135.484375 215.76171875 C152.27233977 233.56788849 176.54744578 245.43671031 201.12890625 246.3359375 C203.27327098 246.36566529 205.41793162 246.37820851 207.5625 246.375 C208.69494141 246.37338867 209.82738281 246.37177734 210.99414062 246.37011719 C223.52139439 246.18912854 235.36044895 244.08290992 246.859375 238.9296875 C249.5197122 237.77428558 252.24130873 236.89066318 255 236 C269.18994711 249.26618925 279.67659229 265.38465528 281.26370239 285.31077576 C281.34386092 288.83076603 281.33814185 292.33878165 281.29296875 295.859375 C281.28872391 297.12976624 281.28447906 298.40015747 281.28010559 299.70904541 C281.26627912 303.04316306 281.23945564 306.3766316 281.20599365 309.71057129 C281.17498692 313.12990797 281.16153575 316.54931245 281.14648438 319.96875 C281.11360304 326.64600832 281.06354642 333.32296681 281 340 C223.77030988 359.40294147 166.94912438 356.37396262 112.38378906 330.22851562 C109.37032244 328.67548776 106.52929707 326.9209772 103.68457031 325.08056641 C101.76277948 323.84783507 99.7813752 322.79046047 97.75 321.75 C80.18015152 312.08960221 62.68207824 296.62517657 50 281 C49.11226988 279.94767136 48.22421885 278.89561339 47.3359375 277.84375 C16.60096212 240.97898951 -0.46803674 194.15874272 -0.22705078 146.22070312 C-0.2264848 144.61245226 -0.22680686 143.00420088 -0.22793579 141.39595032 C-0.22850302 137.08500501 -0.2168524 132.77417398 -0.20278788 128.46325493 C-0.19017389 123.9376269 -0.1891017 119.41199544 -0.18673706 114.88635254 C-0.18055333 106.34098757 -0.16418515 97.79567457 -0.14403808 89.25033236 C-0.12158162 79.51133894 -0.11066129 69.77234288 -0.10064721 60.03332996 C-0.0798157 40.02219111 -0.04470102 20.01109885 0 0 Z " fill="#4117A3" transform="translate(332,321)"/>
<path d="M0 0 C0.82611786 -0.00970322 1.65223572 -0.01940643 2.50338745 -0.02940369 C5.1728811 -0.05427765 7.84212081 -0.06692909 10.51171875 -0.07421875 C11.42361969 -0.07683716 12.33552063 -0.07945557 13.27505493 -0.08215332 C33.69960922 -0.08842491 53.73565963 1.61856128 73.19921875 8.23828125 C74.10929688 8.51027344 75.019375 8.78226562 75.95703125 9.0625 C108.35335471 19.03407031 136.96711784 37.54161704 160.76171875 61.48828125 C161.67993408 62.41141113 162.59814941 63.33454102 163.54418945 64.28564453 C170.05666433 70.91123356 175.92760509 77.57047957 181.19921875 85.23828125 C181.9941608 86.34290219 182.78975782 87.44705202 183.5859375 88.55078125 C206.23215095 120.58677918 220.26507902 160.55478063 220.3762207 199.92016602 C220.3827919 200.94916519 220.3893631 201.97816437 220.39613342 203.03834534 C220.41572347 206.41879367 220.42749755 209.79919786 220.4375 213.1796875 C220.44157553 214.34298018 220.44565105 215.50627285 220.44985008 216.70481682 C220.4706509 222.86351209 220.4849779 229.02218549 220.49438477 235.1809082 C220.50543119 241.5028097 220.5398286 247.82435754 220.57955647 254.14613438 C220.60584627 259.04244082 220.61408759 263.93866453 220.61766624 268.83503532 C220.62250092 271.16355716 220.63402436 273.4920761 220.65270424 275.82052803 C220.81416649 297.28178977 218.70241319 315.40196423 204.19921875 332.23828125 C203.68875 332.84414063 203.17828125 333.45 202.65234375 334.07421875 C193.60096659 343.97696307 179.11791263 351.7430481 165.54789734 352.35853577 C164.5996962 352.35631516 163.65149506 352.35409454 162.67456055 352.35180664 C161.5938176 352.35173111 160.51307465 352.35165558 159.39958191 352.35157776 C158.24420425 352.34641647 157.0888266 352.34125519 155.8984375 352.3359375 C154.70692581 352.33452255 153.51541412 352.3331076 152.28779602 352.33164978 C148.48741124 352.32605853 144.68708568 352.31350757 140.88671875 352.30078125 C138.30794356 352.29576512 135.72916745 352.29120241 133.15039062 352.28710938 C126.83331318 352.27609196 120.5162702 352.25936247 114.19921875 352.23828125 C114.1968304 351.45420143 114.19444204 350.67012161 114.19198132 349.8622818 C114.13266158 330.72103517 114.05700408 311.57991562 113.96350384 292.43880463 C113.91867419 283.18203373 113.87923047 273.92530021 113.8527832 264.66845703 C113.82969863 256.59350157 113.7961854 248.51866566 113.75051719 240.44380522 C113.72672497 236.17429596 113.70790504 231.90490407 113.70160484 227.6353302 C113.69548986 223.60349227 113.67526379 219.5719541 113.64494324 215.54022789 C113.63626439 214.07309247 113.6324189 212.6059177 113.63421059 211.13875771 C113.65848651 182.04563384 103.31916243 156.29564509 83.51171875 135.11328125 C62.90136555 115.61145303 37.08506767 105.36065723 8.73754883 105.78442383 C-4.14853097 106.22392464 -15.51188111 109.16151898 -27.4375 113.93359375 C-32.96070138 116.07615968 -32.96070138 116.07615968 -34.80078125 116.23828125 C-46.6640953 109.88747073 -54.67810963 92.6554587 -58.70019531 80.52587891 C-61.65968142 68.80296061 -61.25281888 56.8622014 -61.19189453 44.84838867 C-61.17565751 41.02161896 -61.19188563 37.19588036 -61.2109375 33.36914062 C-61.20895781 30.93619559 -61.20511985 28.50325119 -61.19921875 26.0703125 C-61.20529144 24.92665726 -61.21136414 23.78300201 -61.21762085 22.60469055 C-61.20343613 21.02109993 -61.20343613 21.02109993 -61.18896484 19.40551758 C-61.18657806 18.47733719 -61.18419128 17.5491568 -61.18173218 16.59284973 C-60.72985715 13.79991599 -60.00992267 12.94454763 -57.80078125 11.23828125 C-55.95751953 10.41040039 -55.95751953 10.41040039 -53.87109375 9.7734375 C-53.08573242 9.53262451 -52.30037109 9.29181152 -51.49121094 9.04370117 C-50.64461914 8.7985376 -49.79802734 8.55337402 -48.92578125 8.30078125 C-48.04825195 8.04208252 -47.17072266 7.78338379 -46.26660156 7.5168457 C-31.26694665 3.23521787 -15.62810305 0.15362957 0 0 Z " fill="#25C494" transform="translate(527.80078125,405.76171875)"/>
<path d="M0 0 C1.16365585 0.0028299 2.32731171 0.00565979 3.52622986 0.00857544 C7.21420924 0.01970019 10.90193874 0.04479067 14.58984375 0.0703125 C17.10221001 0.08035225 19.61458012 0.08947635 22.12695312 0.09765625 C28.2605008 0.11961427 34.39390441 0.15301457 40.52734375 0.1953125 C40.5743233 19.48602981 40.60945853 38.77673531 40.63096809 58.06749821 C40.64122632 67.02703338 40.65518063 75.98653275 40.67822266 84.94604492 C40.69832537 92.76646386 40.71109966 100.58685683 40.71552074 108.40730089 C40.71809994 112.53787896 40.7240443 116.66838285 40.73880386 120.79893684 C40.80037402 138.69984382 40.55111981 156.37924213 38.52734375 174.1953125 C35.21974319 170.99670165 32.79370843 167.66595482 30.40234375 163.7578125 C19.00111425 145.63338864 4.79827864 129.09340272 -11.47265625 115.1953125 C-12.27703125 114.47859375 -13.08140625 113.761875 -13.91015625 113.0234375 C-29.48258534 99.48604176 -47.4685631 89.12499303 -65.47265625 79.1953125 C-65.56116475 75.11212032 -65.61354688 71.02918087 -65.66015625 66.9453125 C-65.68529297 65.80578125 -65.71042969 64.66625 -65.73632812 63.4921875 C-65.88073918 46.54795677 -60.45751376 31.5607341 -48.72802734 19.25537109 C-35.0617464 5.58909015 -18.98220492 -0.1760737 0 0 Z " fill="#3F179F" transform="translate(707.47265625,320.8046875)"/>
<path d="M0 0 C0.66 0 1.32 0 2 0 C3.51630969 2.28522942 4.92346767 4.57614505 6.3125 6.9375 C14.62266314 20.61009927 24.44451352 33.04107503 35.57226562 44.52539062 C36.96050586 45.9592092 38.3320932 47.40909281 39.703125 48.859375 C46.07108572 55.45077294 52.87732282 61.13542825 60.18505859 66.62939453 C61.96631798 67.97456405 63.72776088 69.34269526 65.48828125 70.71484375 C77.44585389 79.89752176 90.53234519 87.26617259 104 94 C104 120.07 104 146.14 104 173 C95.193125 173.0825 86.38625 173.165 77.3125 173.25 C74.55946533 173.28641602 71.80643066 173.32283203 68.9699707 173.36035156 C66.74691544 173.37205227 64.52385149 173.3822408 62.30078125 173.390625 C61.17973999 173.41108887 60.05869873 173.43155273 58.90368652 173.45263672 C42.23451864 173.45986298 28.21817635 166.6829548 16.24609375 155.3046875 C3.62369503 142.35300881 -2.17277873 126.68145639 -2.12939453 108.75439453 C-2.13114685 107.85409012 -2.13289917 106.95378571 -2.13470459 106.02619934 C-2.13909004 103.06171719 -2.13619426 100.09729522 -2.1328125 97.1328125 C-2.13348708 95.05361927 -2.13445838 92.97442612 -2.13571167 90.89523315 C-2.13718467 86.53594207 -2.13504903 82.1766715 -2.13037109 77.81738281 C-2.12470959 72.275883 -2.12793249 66.73443201 -2.13394356 61.19293404 C-2.13759039 56.89449713 -2.13639123 52.59607141 -2.13381577 48.29763412 C-2.13315598 46.25744496 -2.1339411 44.21725472 -2.13629532 42.1770668 C-2.16365466 11.77233024 -2.16365466 11.77233024 0 0 Z " fill="#23BD8F" transform="translate(334,585)"/>
<path d="M0 0 C1.65 0 3.3 0 5 0 C5 2.31 5 4.62 5 7 C5.66 7 6.32 7 7 7 C7 9.31 7 11.62 7 14 C4.69 14 2.38 14 0 14 C0 13.34 0 12.68 0 12 C-0.66 12 -1.32 12 -2 12 C-2 10.35 -2 8.7 -2 7 C-2.66 7 -3.32 7 -4 7 C-3.67 5.35 -3.34 3.7 -3 2 C-2.67 2.99 -2.34 3.98 -2 5 C-1.34 5 -0.68 5 0 5 C0 3.35 0 1.7 0 0 Z " fill="#141414" transform="translate(208,270)"/>
<path d="M0 0 C1.32 0 2.64 0 4 0 C4 0.66 4 1.32 4 2 C4.66 2 5.32 2 6 2 C6 2.99 6 3.98 6 5 C6.66 5 7.32 5 8 5 C8.33 6.32 8.66 7.64 9 9 C9.66 9 10.32 9 11 9 C11 9.99 11 10.98 11 12 C11.66 12 12.32 12 13 12 C13 13.32 13 14.64 13 16 C12.34 16 11.68 16 11 16 C11 15.34 11 14.68 11 14 C10.34 14 9.68 14 9 14 C7.375 12.625 7.375 12.625 6 11 C6 10.34 6 9.68 6 9 C5.34 9 4.68 9 4 9 C4 7.68 4 6.36 4 5 C1.525 4.01 1.525 4.01 -1 3 C-0.67 2.01 -0.34 1.02 0 0 Z " fill="#202020" transform="translate(397,229)"/>
<path d="M0 0 C1.32 0 2.64 0 4 0 C4 0.99 4 1.98 4 3 C4.66 3 5.32 3 6 3 C6 5.97 6 8.94 6 12 C5.34 12 4.68 12 4 12 C4 11.34 4 10.68 4 10 C2.35 9.67 0.7 9.34 -1 9 C-1 8.34 -1 7.68 -1 7 C-1.66 7 -2.32 7 -3 7 C-3 6.34 -3 5.68 -3 5 C-2.34 5 -1.68 5 -1 5 C-0.67 3.35 -0.34 1.7 0 0 Z " fill="#111111" transform="translate(326,364)"/>
<path d="M0 0 C0.66 0 1.32 0 2 0 C2 1.32 2 2.64 2 4 C3.32 4.33 4.64 4.66 6 5 C6.33 6.32 6.66 7.64 7 9 C7.66 9 8.32 9 9 9 C9 10.65 9 12.3 9 14 C8.01 14 7.02 14 6 14 C6 13.34 6 12.68 6 12 C5.34 12 4.68 12 4 12 C4 11.01 4 10.02 4 9 C2.68 9 1.36 9 0 9 C0 8.34 0 7.68 0 7 C-0.66 7 -1.32 7 -2 7 C-2 6.34 -2 5.68 -2 5 C-1.34 5 -0.68 5 0 5 C0 3.35 0 1.7 0 0 Z " fill="#1E1E1E" transform="translate(252,11)"/>
<path d="M0 0 C1.32 0 2.64 0 4 0 C5.4606285 2.64738916 6 3.89448334 6 7 C6.99 7 7.98 7 9 7 C9 8.32 9 9.64 9 11 C6.69 11 4.38 11 2 11 C2 10.34 2 9.68 2 9 C0.68 9 -0.64 9 -2 9 C-2 8.34 -2 7.68 -2 7 C-0.68 7 0.64 7 2 7 C2 5.35 2 3.7 2 2 C1.34 2 0.68 2 0 2 C0 1.34 0 0.68 0 0 Z " fill="#202020" transform="translate(275,32)"/>
<path d="M0 0 C0.66 0 1.32 0 2 0 C2 0.99 2 1.98 2 3 C2.66 3 3.32 3 4 3 C4 5.31 4 7.62 4 10 C1.50907189 11.24546405 0.58919267 10.7767578 -2 10 C-2 9.34 -2 8.68 -2 8 C-2.99 7.67 -3.98 7.34 -5 7 C-5 6.34 -5 5.68 -5 5 C-3.35 5 -1.7 5 0 5 C0 3.35 0 1.7 0 0 Z " fill="#202020" transform="translate(220,139)"/>
<path d="M0 0 C1.65 0 3.3 0 5 0 C5 2.97 5 5.94 5 9 C3.68 9.33 2.36 9.66 1 10 C0 9 0 9 -0.09765625 6.93359375 C-0.08605469 6.10988281 -0.07445312 5.28617187 -0.0625 4.4375 C-0.05347656 3.61121094 -0.04445312 2.78492188 -0.03515625 1.93359375 C-0.02355469 1.29550781 -0.01195312 0.65742188 0 0 Z " fill="#1D1D1D" transform="translate(201,252)"/>
<path d="M0 0 C1.65 0 3.3 0 5 0 C5 0.99 5 1.98 5 3 C5.66 3 6.32 3 7 3 C7 3.66 7 4.32 7 5 C7.99 5 8.98 5 10 5 C10.33 5.99 10.66 6.98 11 8 C9.02 8.99 9.02 8.99 7 10 C7 9.01 7 8.02 7 7 C5.68 7 4.36 7 3 7 C3 5.68 3 4.36 3 3 C2.01 3 1.02 3 0 3 C0 2.01 0 1.02 0 0 Z " fill="#1C1C1C" transform="translate(286,121)"/>
<path d="M0 0 C1.65 0 3.3 0 5 0 C5 0.66 5 1.32 5 2 C6.32 2 7.64 2 9 2 C9 2.66 9 3.32 9 4 C9.99 4 10.98 4 12 4 C11.67 4.99 11.34 5.98 11 7 C9.68 7 8.36 7 7 7 C7 6.34 7 5.68 7 5 C5.35 4.67 3.7 4.34 2 4 C2 3.34 2 2.68 2 2 C1.34 2 0.68 2 0 2 C0 1.34 0 0.68 0 0 Z " fill="#151515" transform="translate(353,798)"/>
<path d="M0 0 C0.66 0 1.32 0 2 0 C2.33 0.99 2.66 1.98 3 3 C2.01 3.99 1.02 4.98 0 6 C0 4.02 0 2.04 0 0 Z M0 6 C0 6.99 0 7.98 0 9 C0.99 9.33 1.98 9.66 3 10 C1.125 11.0625 1.125 11.0625 -1 12 C-1.66 11.67 -2.32 11.34 -3 11 C-3 10.34 -3 9.68 -3 9 C-4.32 9 -5.64 9 -7 9 C-7 8.34 -7 7.68 -7 7 C-4.50935112 6.31292445 -2.62113708 6 0 6 Z " fill="#222222" transform="translate(346,298)"/>
<path d="M0 0 C2.97 0 5.94 0 9 0 C8.67 1.65 8.34 3.3 8 5 C4 5 4 5 2 4 C2 3.34 2 2.68 2 2 C1.34 2 0.68 2 0 2 C0 1.34 0 0.68 0 0 Z " fill="#232323" transform="translate(316,0)"/>
<path d="M0 0 C0.66 0 1.32 0 2 0 C2 0.66 2 1.32 2 2 C2.66 2 3.32 2 4 2 C4.6875 4.25 4.6875 4.25 5 7 C3.6875 9.3125 3.6875 9.3125 2 11 C1.34 11 0.68 11 0 11 C0 10.34 0 9.68 0 9 C0.66 9 1.32 9 2 9 C2 8.34 2 7.68 2 7 C1.34 7 0.68 7 0 7 C0 4.69 0 2.38 0 0 Z " fill="#1E1E1E" transform="translate(353,307)"/>
<path d="M0 0 C0.66 0 1.32 0 2 0 C2 0.66 2 1.32 2 2 C2.99 2 3.98 2 5 2 C5 2.66 5 3.32 5 4 C5.66 4 6.32 4 7 4 C7 5.65 7 7.3 7 9 C6.01 9 5.02 9 4 9 C4 8.34 4 7.68 4 7 C3.34 7 2.68 7 2 7 C2 6.01 2 5.02 2 4 C1.34 4 0.68 4 0 4 C0 2.68 0 1.36 0 0 Z " fill="#1C1C1C" transform="translate(243,80)"/>
<path d="M0 0 C1.32 0 2.64 0 4 0 C4 0.66 4 1.32 4 2 C4.99 2 5.98 2 7 2 C7.66 3.65 8.32 5.3 9 7 C7.35 7 5.7 7 4 7 C4 6.01 4 5.02 4 4 C3.34 4 2.68 4 2 4 C2 3.34 2 2.68 2 2 C1.34 2 0.68 2 0 2 C0 1.34 0 0.68 0 0 Z " fill="#131313" transform="translate(344,791)"/>
<path d="M0 0 C4.29 0 8.58 0 13 0 C11.02 0.99 11.02 0.99 9 2 C8.67 2.33 8.34 2.66 8 3 C6.48071962 3.07179964 4.95832518 3.08392007 3.4375 3.0625 C2.61121094 3.05347656 1.78492188 3.04445313 0.93359375 3.03515625 C0.29550781 3.02355469 -0.34257812 3.01195312 -1 3 C-0.67 2.01 -0.34 1.02 0 0 Z " fill="#1D1D1D" transform="translate(487,536)"/>
<path d="M0 0 C1.65 0 3.3 0 5 0 C5 0.66 5 1.32 5 2 C5.66 2 6.32 2 7 2 C7.33 2.99 7.66 3.98 8 5 C6.02 5.99 6.02 5.99 4 7 C4 6.34 4 5.68 4 5 C3.34 5 2.68 5 2 5 C2 4.01 2 3.02 2 2 C1.34 2 0.68 2 0 2 C0 1.34 0 0.68 0 0 Z " fill="#242424" transform="translate(337,87)"/>
<path d="M0 0 C1.32 0 2.64 0 4 0 C4 0.66 4 1.32 4 2 C5.65 2 7.3 2 9 2 C9 3.65 9 5.3 9 7 C8.34 7 7.68 7 7 7 C7 6.34 7 5.68 7 5 C5.35 4.67 3.7 4.34 2 4 C2 3.34 2 2.68 2 2 C1.34 2 0.68 2 0 2 C0 1.34 0 0.68 0 0 Z " fill="#202020" transform="translate(323,369)"/>
<path d="M0 0 C0.66 0 1.32 0 2 0 C2 0.66 2 1.32 2 2 C3.32 2 4.64 2 6 2 C6.33 3.65 6.66 5.3 7 7 C5.35 7 3.7 7 2 7 C2 6.01 2 5.02 2 4 C1.34 4 0.68 4 0 4 C0 2.68 0 1.36 0 0 Z " fill="#191919" transform="translate(351,181)"/>
<path d="M0 0 C1.65 0 3.3 0 5 0 C5 2.31 5 4.62 5 7 C4.34 7 3.68 7 3 7 C3 6.34 3 5.68 3 5 C2.34 5 1.68 5 1 5 C0.67 3.35 0.34 1.7 0 0 Z " fill="#202020" transform="translate(208,270)"/>
<path d="M0 0 C1.32 0 2.64 0 4 0 C4 0.66 4 1.32 4 2 C5.65 2 7.3 2 9 2 C9 2.99 9 3.98 9 5 C6.69 4.67 4.38 4.34 2 4 C2 3.34 2 2.68 2 2 C1.34 2 0.68 2 0 2 C0 1.34 0 0.68 0 0 Z " fill="#1C1C1C" transform="translate(273,213)"/>
<path d="M0 0 C0.66 0 1.32 0 2 0 C2 0.99 2 1.98 2 3 C2.66 3 3.32 3 4 3 C4 4.98 4 6.96 4 9 C3.34 9 2.68 9 2 9 C2 8.34 2 7.68 2 7 C1.34 7 0.68 7 0 7 C0 4.69 0 2.38 0 0 Z " fill="#191919" transform="translate(204,121)"/>
<path d="M0 0 C1.65 0 3.3 0 5 0 C5 1.65 5 3.3 5 5 C3.35 5 1.7 5 0 5 C0 3.35 0 1.7 0 0 Z " fill="#202020" transform="translate(362,316)"/>
<path d="M0 0 C1.65 0 3.3 0 5 0 C5 1.65 5 3.3 5 5 C3.35 5 1.7 5 0 5 C0 3.35 0 1.7 0 0 Z " fill="#1C1C1C" transform="translate(362,107)"/>
<path d="M0 0 C1.98 0 3.96 0 6 0 C6 0.66 6 1.32 6 2 C6.66 2 7.32 2 8 2 C7.67 2.99 7.34 3.98 7 5 C6.01 5 5.02 5 4 5 C3.67 4.34 3.34 3.68 3 3 C2.01 2.67 1.02 2.34 0 2 C0 1.34 0 0.68 0 0 Z " fill="#111111" transform="translate(351,807)"/>
<path d="M0 0 C2 1.1875 2 1.1875 4 3 C4.25 5.6875 4.25 5.6875 4 8 C3.01 7.67 2.02 7.34 1 7 C1 6.34 1 5.68 1 5 C0.34 5 -0.32 5 -1 5 C-0.67 3.35 -0.34 1.7 0 0 Z " fill="#181818" transform="translate(99,701)"/>
<path d="M0 0 C1.32 0 2.64 0 4 0 C4 0.66 4 1.32 4 2 C4.99 2 5.98 2 7 2 C6.67 3.65 6.34 5.3 6 7 C1.125 2.25 1.125 2.25 0 0 Z " fill="#1F1D22" transform="translate(459,527)"/>
<path d="M0 0 C1.32 0 2.64 0 4 0 C4.33 1.65 4.66 3.3 5 5 C3.35 5 1.7 5 0 5 C0 3.35 0 1.7 0 0 Z " fill="#212121" transform="translate(541,387)"/>
<path d="M0 0 C0.99 0 1.98 0 3 0 C3 0.66 3 1.32 3 2 C3.66 2 4.32 2 5 2 C5.33 3.32 5.66 4.64 6 6 C5.01 6.66 4.02 7.32 3 8 C3 6.68 3 5.36 3 4 C2.34 4 1.68 4 1 4 C0.67 2.68 0.34 1.36 0 0 Z " fill="#1C1C1C" transform="translate(217,268)"/>
<path d="M0 0 C0.66 0 1.32 0 2 0 C2 0.66 2 1.32 2 2 C2.66 2 3.32 2 4 2 C4 3.65 4 5.3 4 7 C3.01 7.495 3.01 7.495 2 8 C2 7.01 2 6.02 2 5 C1.34 5 0.68 5 0 5 C0 3.35 0 1.7 0 0 Z " fill="#1F1F1F" transform="translate(204,238)"/>
<path d="M0 0 C1.32 0 2.64 0 4 0 C4 1.65 4 3.3 4 5 C3.01 5.495 3.01 5.495 2 6 C1.34 5.67 0.68 5.34 0 5 C0 3.35 0 1.7 0 0 Z " fill="#121212" transform="translate(275,190)"/>
<path d="M0 0 C0.66 0 1.32 0 2 0 C2.33 0.66 2.66 1.32 3 2 C3.99 2.66 4.98 3.32 6 4 C5 5 5 5 1.4375 5.0625 C0.303125 5.041875 -0.83125 5.02125 -2 5 C-2 3 -2 3 0 1 C0 0.67 0 0.34 0 0 Z " fill="#1F1F1F" transform="translate(355,100)"/>
<path d="M0 0 C1.65 0 3.3 0 5 0 C5 0.66 5 1.32 5 2 C5.99 2.33 6.98 2.66 8 3 C6.02 3.99 6.02 3.99 4 5 C3.67 4.01 3.34 3.02 3 2 C2.01 2 1.02 2 0 2 C0 1.34 0 0.68 0 0 Z " fill="#1A1A1A" transform="translate(270,337)"/>
<path d="M0 0 C0 0.66 0 1.32 0 2 C-2.97 2 -5.94 2 -9 2 C-9 1.34 -9 0.68 -9 0 C-5.52176885 -1.15941038 -3.54104422 -0.70820884 0 0 Z " fill="#232323" transform="translate(612,399)"/>
<path d="M0 0 C1.32 0 2.64 0 4 0 C4.33 1.32 4.66 2.64 5 4 C4.01 4.33 3.02 4.66 2 5 C2 4.34 2 3.68 2 3 C1.01 2.67 0.02 2.34 -1 2 C-0.67 1.34 -0.34 0.68 0 0 Z " fill="#1C1C1C" transform="translate(328,160)"/>
<path d="M0 0 C0 1.65 0 3.3 0 5 C-0.99 5 -1.98 5 -3 5 C-3 4.34 -3 3.68 -3 3 C-3.66 3 -4.32 3 -5 3 C-5 2.34 -5 1.68 -5 1 C-1.125 0 -1.125 0 0 0 Z " fill="#191919" transform="translate(321,428)"/>
<path d="M0 0 C2 2 2 2 2 5 C0.35 5 -1.3 5 -3 5 C-1.125 1.125 -1.125 1.125 0 0 Z " fill="#181818" transform="translate(232,153)"/>
<path d="M0 0 C1.32 0 2.64 0 4 0 C4 1.65 4 3.3 4 5 C3.34 5 2.68 5 2 5 C2 4.34 2 3.68 2 3 C1.01 2.67 0.02 2.34 -1 2 C-0.67 1.34 -0.34 0.68 0 0 Z " fill="#171717" transform="translate(195,36)"/>
</svg>
